<?xml version="1.0" encoding="utf-8"?>
<!-- Generator: Adobe Illustrator 24.1.1, SVG Export Plug-In . SVG Version: 6.00 Build 0)  -->
<svg version="1.0" id="Слой_1" xmlns="http://www.w3.org/2000/svg" xmlns:xlink="http://www.w3.org/1999/xlink" x="0px" y="0px"
	 viewBox="0 0 500 500" style="enable-background:new 0 0 500 500;" xml:space="preserve">
<style type="text/css">
	.st0{fill:url(#SVGID_1_);}
	.st1{fill:url(#SVGID_2_);}
	.st2{fill:url(#SVGID_3_);}
	.st3{fill:url(#SVGID_4_);}
	.st4{fill:url(#SVGID_5_);}
	.st5{fill:url(#SVGID_6_);}
	.st6{fill:url(#SVGID_7_);}
	.st7{fill:url(#SVGID_8_);}
	.st8{fill:url(#SVGID_9_);}
	.st9{fill:url(#SVGID_10_);}
	.st10{fill:url(#SVGID_11_);}
	.st11{fill:url(#SVGID_12_);}
	.st12{fill:url(#SVGID_13_);}
	.st13{fill:url(#SVGID_14_);}
	.st14{fill:url(#SVGID_15_);}
	.st15{fill:url(#SVGID_16_);}
	.st16{fill:url(#SVGID_17_);}
	.st17{fill:url(#SVGID_18_);}
	.st18{fill:url(#SVGID_19_);}
	.st19{fill:url(#SVGID_20_);}
	.st20{fill:url(#SVGID_21_);}
	.st21{fill:url(#SVGID_22_);}
	.st22{fill:url(#SVGID_23_);}
	.st23{fill:#E52625;}
	.st24{fill:#C8C7C7;}
	.st25{fill:#E0E0E0;}
	.st26{fill:#ADDBDE;}
	.st27{fill:#8ECFD4;}
	.st28{fill:#7CC0C6;}
	.st29{fill:#FFFFFF;}
	.st30{fill:none;stroke:#D2DBD1;stroke-width:2.0213;stroke-miterlimit:10;stroke-dasharray:4.0425,5.39;}
</style>
<g>
	<radialGradient id="SVGID_1_" cx="206.1613" cy="231.081" r="229.7261" gradientUnits="userSpaceOnUse">
		<stop  offset="0.3663" style="stop-color:#C91517"/>
		<stop  offset="0.5444" style="stop-color:#9F1814"/>
		<stop  offset="0.6782" style="stop-color:#801810"/>
		<stop  offset="0.9703" style="stop-color:#C91517"/>
	</radialGradient>
	<path class="st0" d="M449.5,251l0-8.7c-54,0-42.8,0-46.8-22.7c16.7-10.9,30.2-16.3,71.3-27.3l-3.5-12.9
		c-82.8,22.2-73.4,14.5-82.2-2.7c7.2-7,15.9-12.9,35.5-24.2l-4.4-7.5c-19.5,11.3-28.3,16.6-38.2,19.2c-9.8-15.6-24.8-13,36.2-74
		l-9.4-9.4c-61.3,61.3-53.9,48.4-75.1,34.9c2.8-9.6,7.3-19.1,18.6-38.6l-7.6-4.4c-26,45-20,35.9-40.7,28.3
		c-0.8-18.8,1.5-33.6,12.1-73.3l-12.9-3.4c-22,82.1-22.1,68.6-44.7,67.5c-2.8-10.3-3.7-20.6-3.7-44.6h-8.7c0,24,0.2,34.1-3.1,44.6
		c-19,0.9-24.3,15.7-47-69.1l-12.9,3.5c11,41.1,15,54.5,12.5,75.5c-5.2,2-10.3,4.2-15.2,6.7c-7-7.2-12.9-15.9-24.2-35.5l-7.6,4.4
		c11.3,19.5,16.6,28.3,19.2,38.2c-15.7,9.9-13,24.7-74-36.2l-9.4,9.4c71.4,71.4,49.5,87.2-3.7,56.5l-4.4,7.6
		c19.6,11.3,28.6,16.3,35.8,23.6c-8.1,15.9,1.4,27-80.8,5l-3.4,12.9c39.5,10.6,53.6,14,69.7,25.5c-1.1,6.3-1.9,12.7-2.2,19.2
		c-10.3,2.8-20.6,3.7-44.6,3.7v8.7c24,0,34.1-0.2,44.6,3.1c0.9,19.1,15.6,24.3-69.1,47l3.5,12.9c82.8-22.2,73.4-14.5,82.2,2.7
		c-7.2,7-15.9,12.9-35.5,24.2l4.4,7.5c19.5-11.3,28.3-16.6,38.2-19.2c8.9,14.2,21.9,13.4-20.7,58.1c4.2,2.2,8.1,4.9,11.5,7.9
		c42-40.7,38.5-29.6,57.5-17.6c-2.8,9.6-7.3,19.1-18.6,38.6l7.5,4.4c11.3-19.6,16.3-28.6,23.6-35.8c15.9,8.1,27-1.5,5,80.8l12.9,3.4
		c10.6-39.5,14-53.6,25.5-69.7c20.7,3.7,22.9-6.8,22.9,46.9l8.7,0c0-54,0-42.8,22.7-46.9c10.9,16.7,16.3,30.2,27.3,71.3l12.9-3.5
		c-11-41.1-15-54.5-12.5-75.5c16.9-6.4,13.7-15.6,39.4,28.8l7.5-4.4c-26-45-21.2-35-3.4-49.6c13.7,7.1,23.9,14.4,42.5,32.1
		c3.3-3.2,7.1-5.9,11-8.3c-44.5-45.5-33.1-41.3-20.7-60.8c9.6,2.8,19.1,7.3,38.6,18.6l4.4-7.6c-19.6-11.3-28.6-16.3-35.8-23.6
		c8.1-15.9-1.5-27,80.8-5l3.4-12.9c-39.5-10.6-53.6-14-69.7-25.5C406.3,253.2,395.9,251,449.5,251z"/>
</g>
<radialGradient id="SVGID_2_" cx="206.1612" cy="231.0803" r="229.7263" gradientUnits="userSpaceOnUse">
	<stop  offset="0.3663" style="stop-color:#C91517"/>
	<stop  offset="0.5444" style="stop-color:#9F1814"/>
	<stop  offset="0.6782" style="stop-color:#801810"/>
	<stop  offset="0.9703" style="stop-color:#C91517"/>
</radialGradient>
<path class="st1" d="M327.8,32.1c-2.1,8.1-13.3,12.3-25,9.3c-11.7-3-19.5-12.1-17.4-20.2c2.1-8.1,13.3-12.3,25-9.2
	C322.1,14.9,329.9,23.9,327.8,32.1z"/>
<radialGradient id="SVGID_3_" cx="206.1618" cy="231.081" r="229.7253" gradientUnits="userSpaceOnUse">
	<stop  offset="0.3663" style="stop-color:#C91517"/>
	<stop  offset="0.5444" style="stop-color:#9F1814"/>
	<stop  offset="0.6782" style="stop-color:#801810"/>
	<stop  offset="0.9703" style="stop-color:#C91517"/>
</radialGradient>
<path class="st2" d="M427.8,100.4c-5.4,6.4-17.3,5.3-26.5-2.5c-9.2-7.8-12.3-19.3-6.9-25.8c5.4-6.4,17.3-5.3,26.5,2.5
	C430.2,82.5,433.2,94,427.8,100.4z"/>
<radialGradient id="SVGID_4_" cx="206.161" cy="231.0812" r="229.7257" gradientUnits="userSpaceOnUse">
	<stop  offset="0.3663" style="stop-color:#C91517"/>
	<stop  offset="0.5444" style="stop-color:#9F1814"/>
	<stop  offset="0.6782" style="stop-color:#801810"/>
	<stop  offset="0.9703" style="stop-color:#C91517"/>
</radialGradient>
<path class="st3" d="M474.6,207.1c-8.3,1.5-16.7-7-18.8-18.9c-2.1-11.9,2.9-22.7,11.2-24.2c8.3-1.5,16.7,7,18.8,18.9
	C487.9,194.8,482.9,205.7,474.6,207.1z"/>
<radialGradient id="SVGID_5_" cx="206.1616" cy="231.0812" r="229.7261" gradientUnits="userSpaceOnUse">
	<stop  offset="0.3663" style="stop-color:#C91517"/>
	<stop  offset="0.5444" style="stop-color:#9F1814"/>
	<stop  offset="0.6782" style="stop-color:#801810"/>
	<stop  offset="0.9703" style="stop-color:#C91517"/>
</radialGradient>
<path class="st4" d="M462,326.4c-7.9-2.8-11.1-14.3-7-25.7c4-11.4,13.7-18.3,21.7-15.5c7.9,2.8,11.1,14.3,7,25.7
	C479.6,322.3,469.9,329.2,462,326.4z"/>
<radialGradient id="SVGID_6_" cx="206.1613" cy="231.0806" r="229.7272" gradientUnits="userSpaceOnUse">
	<stop  offset="0.3663" style="stop-color:#C91517"/>
	<stop  offset="0.5444" style="stop-color:#9F1814"/>
	<stop  offset="0.6782" style="stop-color:#801810"/>
	<stop  offset="0.9703" style="stop-color:#C91517"/>
</radialGradient>
<path class="st5" d="M287.4,470.7c-1.7-8.3,6.6-16.9,18.4-19.3c11.9-2.4,22.8,2.3,24.5,10.6c1.7,8.2-6.6,16.9-18.4,19.3
	C300,483.7,289,478.9,287.4,470.7z"/>
<radialGradient id="SVGID_7_" cx="206.1613" cy="231.081" r="229.726" gradientUnits="userSpaceOnUse">
	<stop  offset="0.3663" style="stop-color:#C91517"/>
	<stop  offset="0.5444" style="stop-color:#9F1814"/>
	<stop  offset="0.6782" style="stop-color:#801810"/>
	<stop  offset="0.9703" style="stop-color:#C91517"/>
</radialGradient>
<path class="st6" d="M168,460.8c1.8-8.2,12.8-12.8,24.6-10.2c11.8,2.6,19.9,11.4,18.1,19.6c-1.8,8.2-12.8,12.8-24.7,10.2
	C174.3,477.8,166.2,469.1,168,460.8z"/>
<radialGradient id="SVGID_8_" cx="206.1612" cy="231.0811" r="229.7261" gradientUnits="userSpaceOnUse">
	<stop  offset="0.3663" style="stop-color:#C91517"/>
	<stop  offset="0.5444" style="stop-color:#9F1814"/>
	<stop  offset="0.6782" style="stop-color:#801810"/>
	<stop  offset="0.9703" style="stop-color:#C91517"/>
</radialGradient>
<path class="st7" d="M18.8,288.3c7.9-3,17.7,3.7,22.1,15c4.3,11.3,1.5,22.9-6.4,25.9c-7.8,3-17.7-3.7-22.1-15
	C8.1,302.9,10.9,291.3,18.8,288.3z"/>
<radialGradient id="SVGID_9_" cx="206.1613" cy="231.0811" r="229.7262" gradientUnits="userSpaceOnUse">
	<stop  offset="0.3663" style="stop-color:#C91517"/>
	<stop  offset="0.5444" style="stop-color:#9F1814"/>
	<stop  offset="0.6782" style="stop-color:#801810"/>
	<stop  offset="0.9703" style="stop-color:#C91517"/>
</radialGradient>
<path class="st8" d="M33.3,167.4c8.2,2.1,12.4,13.2,9.4,24.9c-2.9,11.7-12,19.6-20.1,17.5c-8.2-2.1-12.4-13.2-9.4-25
	C16.1,173.2,25.1,165.3,33.3,167.4z"/>
<radialGradient id="SVGID_10_" cx="206.1611" cy="231.0809" r="229.7254" gradientUnits="userSpaceOnUse">
	<stop  offset="0.3663" style="stop-color:#C91517"/>
	<stop  offset="0.5444" style="stop-color:#9F1814"/>
	<stop  offset="0.6782" style="stop-color:#801810"/>
	<stop  offset="0.9703" style="stop-color:#C91517"/>
</radialGradient>
<path class="st9" d="M103,67.5c6.1,5.8,4.2,17.6-4.2,26.3c-8.4,8.7-20.1,11-26.2,5.2c-6.1-5.8-4.2-17.6,4.2-26.3
	C85.3,64,97,61.7,103,67.5z"/>
<radialGradient id="SVGID_11_" cx="206.1614" cy="231.0813" r="229.7256" gradientUnits="userSpaceOnUse">
	<stop  offset="0.3663" style="stop-color:#C91517"/>
	<stop  offset="0.5444" style="stop-color:#9F1814"/>
	<stop  offset="0.6782" style="stop-color:#801810"/>
	<stop  offset="0.9703" style="stop-color:#C91517"/>
</radialGradient>
<path class="st10" d="M209.6,16.8c2.3,8.1-5.2,17.3-16.8,20.7c-11.6,3.4-22.9-0.5-25.3-8.5c-2.3-8.1,5.2-17.4,16.8-20.7
	C196,4.9,207.3,8.7,209.6,16.8z"/>
<radialGradient id="SVGID_12_" cx="206.1616" cy="231.0806" r="229.725" gradientUnits="userSpaceOnUse">
	<stop  offset="0.3663" style="stop-color:#C91517"/>
	<stop  offset="0.5444" style="stop-color:#9F1814"/>
	<stop  offset="0.6782" style="stop-color:#801810"/>
	<stop  offset="0.9703" style="stop-color:#C91517"/>
</radialGradient>
<path class="st11" d="M264.3,46.1c0.2,5.7-6.2,10.7-14.5,11c-8.2,0.4-15.1-4-15.4-9.8c-0.2-5.7,6.3-10.7,14.5-11
	C257.2,36,264,40.4,264.3,46.1z"/>
<radialGradient id="SVGID_13_" cx="206.1613" cy="231.0815" r="229.7263" gradientUnits="userSpaceOnUse">
	<stop  offset="0.3663" style="stop-color:#C91517"/>
	<stop  offset="0.5444" style="stop-color:#9F1814"/>
	<stop  offset="0.6782" style="stop-color:#801810"/>
	<stop  offset="0.9703" style="stop-color:#C91517"/>
</radialGradient>
<path class="st12" d="M361.3,82.2c-2.5,5.1-10.6,6.4-18,2.7c-7.4-3.6-11.3-10.8-8.8-15.9c2.5-5.1,10.6-6.4,18-2.7
	C359.9,69.9,363.8,77.1,361.3,82.2z"/>
<radialGradient id="SVGID_14_" cx="206.1608" cy="231.0812" r="229.7267" gradientUnits="userSpaceOnUse">
	<stop  offset="0.3663" style="stop-color:#C91517"/>
	<stop  offset="0.5444" style="stop-color:#9F1814"/>
	<stop  offset="0.6782" style="stop-color:#801810"/>
	<stop  offset="0.9703" style="stop-color:#C91517"/>
</radialGradient>
<path class="st13" d="M427.2,162.5c-4.8,3.2-12.4,0.3-17-6.6c-4.6-6.8-4.5-15,0.3-18.2c4.8-3.2,12.4-0.2,17,6.6
	C432.1,151.2,431.9,159.3,427.2,162.5z"/>
<radialGradient id="SVGID_15_" cx="206.1601" cy="231.081" r="229.7277" gradientUnits="userSpaceOnUse">
	<stop  offset="0.3663" style="stop-color:#C91517"/>
	<stop  offset="0.5444" style="stop-color:#9F1814"/>
	<stop  offset="0.6782" style="stop-color:#801810"/>
	<stop  offset="0.9703" style="stop-color:#C91517"/>
</radialGradient>
<path class="st14" d="M448.1,261.7c-5.7-0.1-10.3-6.9-10.1-15.1c0.1-8.2,4.9-14.8,10.7-14.7c5.7,0.1,10.3,6.9,10.1,15.1
	C458.6,255.2,453.9,261.8,448.1,261.7z"/>
<radialGradient id="SVGID_16_" cx="206.1617" cy="231.0812" r="229.7253" gradientUnits="userSpaceOnUse">
	<stop  offset="0.3663" style="stop-color:#C91517"/>
	<stop  offset="0.5444" style="stop-color:#9F1814"/>
	<stop  offset="0.6782" style="stop-color:#801810"/>
	<stop  offset="0.9703" style="stop-color:#C91517"/>
</radialGradient>
<path class="st15" d="M412,356c-4.7-3.2-4.8-11.4-0.2-18.2c4.6-6.8,12.3-9.7,17-6.5c4.7,3.2,4.8,11.4,0.1,18.2
	C424.3,356.3,416.7,359.2,412,356z"/>
<radialGradient id="SVGID_17_" cx="206.1609" cy="231.0809" r="229.7256" gradientUnits="userSpaceOnUse">
	<stop  offset="0.3663" style="stop-color:#C91517"/>
	<stop  offset="0.5444" style="stop-color:#9F1814"/>
	<stop  offset="0.6782" style="stop-color:#801810"/>
	<stop  offset="0.9703" style="stop-color:#C91517"/>
</radialGradient>
<path class="st16" d="M333.9,425.3c-3.2-4.8-0.2-12.4,6.7-16.9c6.9-4.6,15-4.4,18.2,0.4c3.2,4.8,0.2,12.4-6.7,16.9
	C345.2,430.2,337.1,430,333.9,425.3z"/>
<radialGradient id="SVGID_18_" cx="206.1614" cy="231.0815" r="229.7263" gradientUnits="userSpaceOnUse">
	<stop  offset="0.3663" style="stop-color:#C91517"/>
	<stop  offset="0.5444" style="stop-color:#9F1814"/>
	<stop  offset="0.6782" style="stop-color:#801810"/>
	<stop  offset="0.9703" style="stop-color:#C91517"/>
</radialGradient>
<path class="st17" d="M235.1,447.5c-0.8-5.7,5.1-11.2,13.3-12.4c8.2-1.2,15.4,2.5,16.3,8.1c0.8,5.7-5.1,11.2-13.3,12.4
	C243.2,456.8,235.9,453.2,235.1,447.5z"/>
<radialGradient id="SVGID_19_" cx="206.1614" cy="231.0817" r="229.7249" gradientUnits="userSpaceOnUse">
	<stop  offset="0.3663" style="stop-color:#C91517"/>
	<stop  offset="0.5444" style="stop-color:#9F1814"/>
	<stop  offset="0.6782" style="stop-color:#801810"/>
	<stop  offset="0.9703" style="stop-color:#C91517"/>
</radialGradient>
<path class="st18" d="M139.6,412.1c2.7-5.1,10.8-6.1,18.1-2.3c7.3,3.8,11,11.1,8.4,16.1c-2.7,5.1-10.8,6.1-18.1,2.2
	C140.7,424.4,136.9,417.1,139.6,412.1z"/>
<radialGradient id="SVGID_20_" cx="206.1611" cy="231.0813" r="229.7258" gradientUnits="userSpaceOnUse">
	<stop  offset="0.3663" style="stop-color:#C91517"/>
	<stop  offset="0.5444" style="stop-color:#9F1814"/>
	<stop  offset="0.6782" style="stop-color:#801810"/>
	<stop  offset="0.9703" style="stop-color:#C91517"/>
</radialGradient>
<path class="st19" d="M69,334.4c4.2-3.9,12.2-2.2,17.8,3.8c5.6,6,6.8,14.1,2.6,18c-4.2,3.9-12.2,2.2-17.8-3.9
	C65.9,346.4,64.8,338.3,69,334.4z"/>
<radialGradient id="SVGID_21_" cx="206.1605" cy="231.0811" r="229.7249" gradientUnits="userSpaceOnUse">
	<stop  offset="0.3663" style="stop-color:#C91517"/>
	<stop  offset="0.5444" style="stop-color:#9F1814"/>
	<stop  offset="0.6782" style="stop-color:#801810"/>
	<stop  offset="0.9703" style="stop-color:#C91517"/>
</radialGradient>
<path class="st20" d="M49.5,231.4c5.7-0.1,10.5,6.5,10.7,14.7c0.2,8.2-4.3,15-10.1,15.1c-5.7,0.1-10.5-6.5-10.7-14.7
	C39.2,238.3,43.7,231.5,49.5,231.4z"/>
<radialGradient id="SVGID_22_" cx="206.1616" cy="231.0814" r="229.7266" gradientUnits="userSpaceOnUse">
	<stop  offset="0.3663" style="stop-color:#C91517"/>
	<stop  offset="0.5444" style="stop-color:#9F1814"/>
	<stop  offset="0.6782" style="stop-color:#801810"/>
	<stop  offset="0.9703" style="stop-color:#C91517"/>
</radialGradient>
<path class="st21" d="M83.7,134.7c5.4,2,7.5,9.8,4.7,17.6c-2.8,7.8-9.5,12.5-14.9,10.5c-5.4-2-7.5-9.8-4.7-17.6
	C71.7,137.5,78.3,132.8,83.7,134.7z"/>
<radialGradient id="SVGID_23_" cx="206.1614" cy="231.0803" r="229.7251" gradientUnits="userSpaceOnUse">
	<stop  offset="0.3663" style="stop-color:#C91517"/>
	<stop  offset="0.5444" style="stop-color:#9F1814"/>
	<stop  offset="0.6782" style="stop-color:#801810"/>
	<stop  offset="0.9703" style="stop-color:#C91517"/>
</radialGradient>
<path class="st22" d="M163.1,66.6c3.3,4.7,0.4,12.4-6.4,17.1c-6.8,4.7-14.9,4.7-18.2-0.1c-3.3-4.7-0.4-12.3,6.4-17
	C151.7,61.9,159.8,61.9,163.1,66.6z"/>
<g>
	<path class="st23" d="M301.2,372.9c0,9.5-19.3,17.2-43.2,17.2c-23.8,0-43.1-7.7-43.1-17.2c0-9.5,19.3-17.2,43.1-17.2
		C281.9,355.7,301.2,363.4,301.2,372.9z"/>
	<path class="st23" d="M262,125c0,7.9-16.2,14.4-36.1,14.4c-19.9,0-36.1-6.4-36.1-14.4c0-7.9,16.2-14.4,36.1-14.4
		C245.9,110.7,262,117.1,262,125z"/>
	<path class="st23" d="M176.6,341.7c-7.4,5.9-25.5-4.4-40.3-23.1c-14.8-18.6-20.8-38.5-13.4-44.5c7.4-5.9,25.5,4.4,40.3,23.1
		C178,315.9,184,335.8,176.6,341.7z"/>
	<path class="st23" d="M364.2,272.8c9.3,4.5,9.7,22.9,0.9,41.1c-8.8,18.2-23.5,29.4-32.8,24.9c-9.3-4.5-9.7-22.9-0.9-41.1
		C340.3,279.5,354.9,268.3,364.2,272.8z"/>
	<path class="st23" d="M158.1,151.7c9.3,4.5,9.7,22.9,0.9,41.1c-8.8,18.2-23.5,29.4-32.8,24.9c-9.3-4.5-9.7-22.9-0.9-41.1
		C134.1,158.3,148.8,147.2,158.1,151.7z"/>
	<path class="st23" d="M362.1,176.9c6.6-1.4,14.3,8,17,21c2.8,13-0.4,24.7-7,26.1c-6.6,1.4-14.3-8-17-21
		C352.3,190,355.5,178.3,362.1,176.9z"/>
	<path class="st23" d="M297.2,124.1c5-4.6,16.3-0.3,25.3,9.5c8.9,9.8,12.1,21.5,7.1,26.1c-5,4.6-16.3,0.3-25.3-9.5
		C295.3,140.3,292.2,128.7,297.2,124.1z"/>
	
		<ellipse transform="matrix(0.2298 -0.9732 0.9732 0.2298 -65.6824 374.0526)" class="st23" cx="203.5" cy="228.5" rx="20.9" ry="20.9"/>
	
		<ellipse transform="matrix(0.2298 -0.9732 0.9732 0.2298 32.6063 400.3814)" class="st23" cx="269.3" cy="179.6" rx="19.3" ry="19.3"/>
	<path class="st23" d="M328.6,232.5c0,7.1-5.7,12.8-12.8,12.8c-7.1,0-12.8-5.7-12.8-12.8s5.7-12.8,12.8-12.8
		C322.9,219.7,328.6,225.4,328.6,232.5z"/>
	<path class="st23" d="M282.9,284.7c0,6.6-5.4,12-12,12c-6.6,0-12-5.4-12-12c0-6.6,5.4-12,12-12C277.5,272.6,282.9,278,282.9,284.7z
		"/>
	<path class="st23" d="M222.7,297.5c0,9.7-7.9,17.6-17.6,17.6c-9.7,0-17.6-7.9-17.6-17.6c0-9.7,7.9-17.6,17.6-17.6
		C214.8,279.9,222.7,287.8,222.7,297.5z"/>
	<path class="st23" d="M298.1,319.2c0,7.1-5.7,12.8-12.8,12.8c-7.1,0-12.8-5.7-12.8-12.8c0-7.1,5.7-12.8,12.8-12.8
		C292.4,306.3,298.1,312.1,298.1,319.2z"/>
	<path class="st23" d="M205.9,176.4c0,4-3.2,7.2-7.2,7.2c-4,0-7.2-3.2-7.2-7.2c0-4,3.2-7.2,7.2-7.2
		C202.6,169.2,205.9,172.4,205.9,176.4z"/>
	<path class="st23" d="M183.4,250.2c0,6.2-5,11.2-11.2,11.2c-6.2,0-11.2-5-11.2-11.2c0-6.2,5-11.2,11.2-11.2
		C178.4,239,183.4,244,183.4,250.2z"/>
	<path class="st23" d="M272.5,240.6c0,6.2-5,11.2-11.2,11.2c-6.2,0-11.2-5-11.2-11.2c0-6.2,5-11.2,11.2-11.2
		C267.4,229.3,272.5,234.4,272.5,240.6z"/>
	<path class="st23" d="M340.6,183.6c0,9.3-7.5,16.8-16.8,16.8s-16.8-7.5-16.8-16.8c0-9.3,7.5-16.8,16.8-16.8
		S340.6,174.3,340.6,183.6z"/>
	<circle class="st23" cx="380.8" cy="264.6" r="7.2"/>
	<circle class="st23" cx="176.2" cy="368.9" r="8.8"/>
	<circle class="st23" cx="116.8" cy="246.2" r="8.8"/>
</g>
<g>
	<g>
		<path class="st24" d="M56.1,352.7c-0.5-5.4-8.1-28.1-10.3-37.4c-0.3-1.3-0.7-3.2-1.1-5.6c-0.4,0.2-0.9,0.3-1.5,0.3
			c-1.4,0-2.8,0.3-4.1,0.5c0.6,2,1,4,1.1,6.1c0.5,1.8,0.6,3.8,0.4,5.6C47,337.4,56.5,356.5,56.1,352.7z"/>
		<path class="st24" d="M36.6,255.3c-1.4-9.1-4-30.1-4-47.2c-1.9,1.2-4.2,2-7.1,2c-1.3,0-2.4-0.2-3.5-0.4c0.4,21.9,6.1,58.7,10,81.4
			c1.2,0.8,2.1,1.8,2.9,2.9c0.4,0.3,0.7,0.6,1,1c0.5,0.6,0.8,1.3,1.2,1.9c0,0.1,0.1,0.2,0.1,0.2c0.2,0.3,0.3,0.6,0.5,1
			c1.3-0.5,2.5-1,3.8-1.3c0.3-0.1,0.7-0.2,1-0.3C40.4,282.3,38,264.5,36.6,255.3z"/>
		<path class="st25" d="M88.6,259.3c0,0-21.7-77.3-43.3-80.4c-0.8-0.1-1.5-0.2-2.3-0.2c0.3,1.9,0.2,3.9-0.2,5.9c0,0.1,0,0.2-0.1,0.3
			c1.2,0.3,2.4,0.8,3.6,1.7c11.9,8.4,27.1,50.2,30.3,63.8C79.9,264,90.7,297,90.7,297L88.6,259.3z"/>
		<path class="st25" d="M74.8,367.6c-6.5-7.3-17.1-22.7-22.7-30c-3.1-4-8-13.3-11.9-21c0,0.1,0,0.2,0,0.2c0.8,3,0.6,6.3-0.5,9.2
			c5.4,15.6,12.7,29.2,20.2,40.9c10.8,16.8,33,36.3,33,36.3l2.2-15.1C88,383.5,82,375.8,74.8,367.6z"/>
	</g>
	<g>
		<path class="st24" d="M455.6,319.2c-0.1-0.2-0.2-0.5-0.3-0.7c-0.1-0.2-0.2-0.3-0.2-0.5c-0.2-0.3-0.3-0.6-0.3-0.9
			c0,0-0.1-0.1-0.1-0.1c-0.1-0.2-0.2-0.4-0.3-0.7c-0.2-0.3-0.3-0.6-0.4-0.9c0,0,0,0,0,0c-0.2-0.4-0.3-0.8-0.3-1.2c0,0,0,0,0-0.1
			c0,0,0-0.1,0-0.1c0-0.2-0.1-0.4-0.1-0.6c-0.1-0.1-0.1-0.3-0.1-0.4c-0.2,1-0.4,1.9-0.5,2.5c-2.2,9.2-9.7,31.9-10.3,37.4
			c-0.4,3.7,8.9-14.8,15.3-29.7c-0.9-1.1-1.6-2.3-2.1-3.7C455.7,319.3,455.7,319.2,455.6,319.2z"/>
		<path class="st24" d="M473.1,206.6c-0.1,0-0.2,0-0.3,0c-0.2,0-0.3,0-0.5,0c-1.7,0-3.2-0.3-4.5-0.7c-0.8,18.4-4.4,40.6-5.7,49.4
			c-1.3,8.9-3.7,25.9-5.8,39.9c0.4,0.1,0.8,0.2,1.2,0.4c0.3,0,0.6,0.1,1,0.1c0.1-0.4,0.3-0.7,0.5-1c0-0.2,0.1-0.3,0.1-0.5
			c1.1-4.1,4-7.7,8.8-8.8c4.4-23.8,10.4-58.9,11.2-80.2C477.4,206.1,475.4,206.6,473.1,206.6z"/>
		<path class="st25" d="M457.2,173.6c-0.4,0-0.8,0-1.1,0.1c-21.7,3.1-45.9,85.6-45.9,85.6l-2.2,37.7c0,0,10.8-32.9,14.1-46.5
			c3.2-13.6,21-60.7,32.9-69.1c0.3-0.2,0.6-0.4,0.9-0.6c-0.1-2.1,0.2-4.2,1-6.1C456.9,174.3,457.1,173.9,457.2,173.6z"/>
		<path class="st25" d="M456.4,320.8c-3.4,6.6-7.2,13.5-9.7,16.8c-5.7,7.3-16.2,22.7-22.7,30c-7.3,8.2-13.3,15.9-20.3,20.3l2.2,15.1
			c0,0,22.2-19.5,33-36.3c7.7-11.9,15.1-25.8,20.5-41.7c0.1-0.2,0.1-0.4,0.2-0.6C458.2,323.5,457.1,322.2,456.4,320.8z"/>
	</g>
</g>
<g>
	<path class="st26" d="M410.4,321.9c4.3-39,8.7-79,8.7-79s-37.9-13-68.2-19.5c-30.3-6.5-24.9-2.2-45.5-8.7
		c-20-6.3-48.1-15.7-55.7-16.2c0,0,0,0-0.1,0c-0.1,0-0.2,0-0.3,0c-0.1,0-0.2,0-0.3,0c0,0,0,0-0.1,0c-7.6,0.5-35.7,9.9-55.7,16.2
		c-20.6,6.5-15.2,2.2-45.5,8.7c-30.3,6.5-68.2,19.5-68.2,19.5s4.3,40.1,8.7,79c4.3,39-6.5,84.4-6.5,84.4s17.3,6.5,36.8,14.1
		c19.5,7.6,32.5,33.6,57.4,56.3c23.9,21.8,69.6,16.7,73.3,16.3c3.7,0.5,49.5,5.5,73.3-16.3c24.9-22.7,37.9-48.7,57.4-56.3
		c19.5-7.6,36.8-14.1,36.8-14.1S406.1,360.9,410.4,321.9z"/>
	<g>
		<path class="st27" d="M172.2,286.4c-14.6,4.9-21.1,9.7-21.1,9.7s34.1,2.4,56.8-14.6c22.7-17.1,20.3-31.7,15.4-32.5
			C218.5,248.3,186.8,281.6,172.2,286.4z"/>
		<g>
			<path class="st27" d="M315.1,309c-28.4-8.4-54-9.5-64.6-9.6c-0.2,0-0.4,0-0.6,0c-0.2,0-0.4,0-0.5,0c-0.2,0-0.4,0-0.5,0
				c-0.2,0-0.4,0-0.6,0c-10.6,0.1-36.2,1.2-64.6,9.6c-37.4,11-74.7,28-74.7,28s15.4,0.7,29.2,1.5c13.8,0.7,47.9-7.4,60.9-8.8
				c10.5-1.2,39.6-20.2,50.3-27.4c15.4,4.6,44.7,17.2,55.2,18.4c13,1.5,42.2,18.6,56,17.9c13.8-0.7,29.2-1.5,29.2-1.5
				S352.5,320,315.1,309z"/>
			<path class="st28" d="M218.8,301.5c-10.5,1.4-22.6,3.7-35.2,7.4c-28.1,8.3-56.2,19.9-68.4,25.2c8.7-0.3,27.5-6.7,40.5-8.5
				c7.7-1.1,14.4,0.4,21.7-1.6C201.2,317.4,208.6,311.7,218.8,301.5z"/>
			<path class="st28" d="M346.2,326.8c7.1,3.5,15.3,2.8,22.6,1.3c-14.2-5.8-34-13.2-53.7-19.1c-28.4-8.4-54-9.5-64.6-9.6
				c-0.2,0-0.4,0-0.6,0c-0.2,0-0.4,0-0.5,0c-0.1,0-0.1,0-0.2,0c5.4,3,16.4,6.7,38.1,10.6C338.1,319.2,336.5,321.9,346.2,326.8z"/>
		</g>
		<g>
			<path class="st27" d="M329.7,373.2c-31,0.7-60.9,14.1-80.4,12.4c-19.5-1.7-49.4-11.7-80.4-12.4c-34.9-0.8-62.5-3.1-62.5-3.1
				s11.7,7.7,19.5,10.2c12.2,3.9,21.9,12.6,42.2,11.8c20.3-0.8,26.8,15.8,51.2,25.2c13.7,5.3,27.6,6.1,35.7,4.7
				c8.1-1.4,13.1-6.9,26.8-12.2c24.4-9.5,34.1-17.7,43-19.5c8.9-1.7,35.7-6.1,47.9-10.1c7.7-2.5,19.5-10.2,19.5-10.2
				S364.6,372.4,329.7,373.2z"/>
			<path class="st28" d="M196.3,387.9c13,6.5,24.9,8.7,26,7c1.1-1.6-24.4-11.4-10.3-11.9c5-0.2,11.1-0.4,16.4-0.9
				c-17.3-3.6-38.1-8.4-59.4-8.9c-31.1-0.7-56.4-2.7-61.5-3.1c5.3,2.7,13.1,5.7,24.5,8C160.6,384.1,183.3,381.4,196.3,387.9z"/>
			<path class="st28" d="M336,380.9c-22.2,2.7-24.4,1.6-37.4,7.6c-13,6-20,9.2-23.8,9.7c-3.8,0.5-2.2,6.5,9.7,1.6
				c11.9-4.9,34.1-14.1,33-10.3c-0.4,1.4-3.1,3.8-5.5,6.1c5.1-2.7,9-4.6,12.8-5.3c4.8-0.9,14.8-2.7,25-4.6
				c6.3-3.8,12.8-7.4,19.7-9.7c8.1-2.7,14.9-4.2,19.3-5.7c-5,0.4-15.2,1.1-28.4,1.8C354.6,375.8,346.5,379.6,336,380.9z"/>
		</g>
		<g>
			<path class="st27" d="M307.8,447.2c-20.9,6.3-45.5,8.7-58.5,8.7c-13,0-37.6-2.4-58.5-8.7c-26.8-8.1-46.3-34.9-46.3-34.9
				s12.2,27.6,39.8,44.7c22.4,13.8,52.8,13.3,65,13.3c12.2,0,42.6,0.6,65-13.3c27.6-17.1,39.8-44.7,39.8-44.7
				S334.6,439.1,307.8,447.2z"/>
			<path class="st28" d="M181.1,446.4c27.6,11.9,41.7,9.2,55.2,10.8c13.5,1.6,29.8,0.5,35.2-0.5c5.4-1.1,7.6-1.6,16.2-1.1
				c6.6,0.4,13.3-3.9,21.6-8.9c-0.5,0.2-1,0.4-1.6,0.5c-20.9,6.3-45.5,8.7-58.5,8.7c-13,0-37.6-2.4-58.5-8.7
				c-25.7-7.8-44.6-32.7-46.2-34.8C149.4,420.8,160.9,437.7,181.1,446.4z"/>
		</g>
		<path class="st27" d="M309.4,269.9c14,4.5,28.1,19.5,28.1,19.5s-18.2,3.5-40-12.4c-6-4.4-24.4-1.5-27.2-5.3
			c-7.3-10-2.6-22.1,0.8-22.7C275.7,248.3,295.4,265.4,309.4,269.9z"/>
	</g>
</g>
<g>
	<path class="st29" d="M411.2,321.9c4.3-39,8.7-79,8.7-79s-37.9-13-68.2-19.5c-30.3-6.5-24.9-2.2-45.5-8.7
		c-20.6-6.5-48.3-17.1-56.8-17.1c-8.5,0-36.3,10.6-56.8,17.1c-20.6,6.5-15.2,2.2-45.5,8.7c-30.3,6.5-68.2,19.5-68.2,19.5
		s4.3,40.1,8.7,79c4.3,39-6.5,84.4-6.5,84.4s17.3,6.5,36.8,14.1c19.5,7.6,32.5,33.6,57.4,56.3c24.9,22.7,60.8,17.9,74.2,17.9
		c13.4,0,49.3,4.9,74.2-17.9c24.9-22.7,37.9-48.7,57.4-56.3c19.5-7.6,36.8-14.1,36.8-14.1S406.9,360.9,411.2,321.9z M372.8,409
		c-7.3,4.9-21.1,22.7-25.2,31.7c-4.1,8.9-19.5,18.7-37.4,32.5c-7,5.4-51.2,8.1-60.9,8.1c-9.7,0-53.9-2.7-60.9-8.1
		c-17.9-13.8-33.3-23.5-37.4-32.5c-4.1-8.9-17.9-26.8-25.2-31.7c-7.3-4.9-25.2-9.7-25.2-9.7s7.3-56,6.5-72.3
		c-0.8-16.2-2.4-56.8-2.4-56.8s33.3-18.7,64.1-21.9c30.9-3.2,49.5-9.7,61.7-14.6c5.1-2.1,14.6-3.9,18.7-3.9c4.1,0,13.5,1.9,18.7,3.9
		c12.2,4.9,30.9,11.4,61.7,14.6c30.9,3.2,64.1,21.9,64.1,21.9s-1.6,40.6-2.4,56.8c-0.8,16.2,6.5,72.3,6.5,72.3
		S380.1,404.2,372.8,409z"/>
	<g>
		<g>
			<path class="st30" d="M98.9,241.8c0,0,5,69.6,4.3,95.8c-0.5,21.7-1.1,37.4-2.7,44.4c-1.6,7-4.9,29.2-4.9,29.2"/>
			<path class="st30" d="M89.1,246.1c0,0,1.1,26.5,2.2,40.6c1.1,14.1,2.2,34.6,2.2,46c0,11.4-1.1,49.3-3.2,57.9
				c-2.2,8.7-3.2,16.2-3.2,16.2"/>
		</g>
		<g>
			<path class="st30" d="M395.5,246.6c0,0-49.3-16.8-60.1-16.8c-10.8,0-22.2-1.6-34.6-6c-12.5-4.3-36.3-14.1-48.7-14.1h-5.4
				c-12.4,0-36.3,9.7-48.7,14.1c-12.5,4.3-23.8,6-34.6,6c-10.8,0-60.1,16.8-60.1,16.8"/>
			<path class="st30" d="M391.7,258.6c0,0-27.1-13-46.6-15.2c-19.5-2.2-35.2-3.8-46.6-7.6c-11.4-3.8-22.2-8.7-31.4-11.4
				c-9.2-2.7-17.3-2.2-17.3-2.2h-1.1c0,0-8.1-0.5-17.3,2.2c-9.2,2.7-20,7.6-31.4,11.4c-11.4,3.8-27.1,5.4-46.6,7.6
				c-19.5,2.2-46.6,15.2-46.6,15.2"/>
		</g>
		<g>
			<path class="st30" d="M399.8,241.8c0,0-5,69.6-4.3,95.8c0.5,21.7,1.1,37.4,2.7,44.4c1.6,7,4.9,29.2,4.9,29.2"/>
			<path class="st30" d="M409.6,246.1c0,0-1.1,26.5-2.2,40.6c-1.1,14.1-2.2,34.6-2.2,46c0,11.4,1.1,49.3,3.2,57.9
				c2.2,8.7,3.2,16.2,3.2,16.2"/>
		</g>
		<path class="st30" d="M395.5,408.2c0,0-12.2,4.9-23.6,10.6c-10.3,5.2-17.1,18.7-22.7,26.8c-5.7,8.1-17.9,18.7-25.2,25.2
			c-7.3,6.5-18.7,14.6-30,16.2c-11.4,1.6-43,2.4-43,2.4h-3.2c0,0-31.7-0.8-43-2.4c-11.4-1.6-22.7-9.7-30-16.2
			c-7.3-6.5-19.5-17.1-25.2-25.2c-5.7-8.1-12.4-21.6-22.7-26.8c-11.4-5.7-23.5-10.6-23.5-10.6"/>
	</g>
</g>
</svg>
